<svg id="visual" viewBox="0 0 2200 1400" width="2200" height="1400" xmlns="http://www.w3.org/2000/svg" xmlns:xlink="http://www.w3.org/1999/xlink" version="1.1"><rect x="0" y="0" width="2200" height="1400" fill="#87a9c4"></rect><path d="M0 716L28.2 750C56.3 784 112.7 852 169 872C225.3 892 281.7 864 338.2 843.2C394.7 822.3 451.3 808.7 507.8 815.7C564.3 822.7 620.7 850.3 677 866.7C733.3 883 789.7 888 846 892.3C902.3 896.7 958.7 900.3 1015.2 879.5C1071.7 858.7 1128.3 813.3 1184.8 804.3C1241.3 795.3 1297.7 822.7 1354 840.7C1410.3 858.7 1466.7 867.3 1523 876.3C1579.3 885.3 1635.7 894.7 1692.2 905.8C1748.7 917 1805.3 930 1861.8 918C1918.3 906 1974.7 869 2031 845.3C2087.3 821.7 2143.7 811.3 2171.8 806.2L2200 801L2200 1401L2171.8 1401C2143.7 1401 2087.3 1401 2031 1401C1974.7 1401 1918.3 1401 1861.8 1401C1805.3 1401 1748.7 1401 1692.2 1401C1635.7 1401 1579.3 1401 1523 1401C1466.7 1401 1410.3 1401 1354 1401C1297.7 1401 1241.3 1401 1184.8 1401C1128.3 1401 1071.7 1401 1015.2 1401C958.7 1401 902.3 1401 846 1401C789.7 1401 733.3 1401 677 1401C620.7 1401 564.3 1401 507.8 1401C451.3 1401 394.7 1401 338.2 1401C281.7 1401 225.3 1401 169 1401C112.7 1401 56.3 1401 28.2 1401L0 1401Z" fill="#d54883"></path><path d="M0 960L28.2 966.8C56.3 973.7 112.7 987.3 169 981.3C225.3 975.3 281.7 949.7 338.2 932.3C394.7 915 451.3 906 507.8 883.5C564.3 861 620.7 825 677 829.3C733.3 833.7 789.7 878.3 846 905.2C902.3 932 958.7 941 1015.2 938.7C1071.7 936.3 1128.3 922.7 1184.8 921.2C1241.3 919.7 1297.7 930.3 1354 912.2C1410.3 894 1466.7 847 1523 856.2C1579.3 865.3 1635.7 930.7 1692.2 937.7C1748.7 944.7 1805.3 893.3 1861.8 857C1918.3 820.7 1974.7 799.3 2031 790.5C2087.3 781.7 2143.7 785.3 2171.8 787.2L2200 789L2200 1401L2171.8 1401C2143.7 1401 2087.3 1401 2031 1401C1974.7 1401 1918.3 1401 1861.8 1401C1805.3 1401 1748.7 1401 1692.2 1401C1635.7 1401 1579.3 1401 1523 1401C1466.7 1401 1410.3 1401 1354 1401C1297.7 1401 1241.3 1401 1184.8 1401C1128.3 1401 1071.7 1401 1015.2 1401C958.7 1401 902.3 1401 846 1401C789.7 1401 733.3 1401 677 1401C620.7 1401 564.3 1401 507.8 1401C451.3 1401 394.7 1401 338.2 1401C281.7 1401 225.3 1401 169 1401C112.7 1401 56.3 1401 28.2 1401L0 1401Z" fill="#c94775"></path><path d="M0 1046L28.2 1020C56.3 994 112.7 942 169 913.8C225.3 885.7 281.7 881.3 338.2 897.5C394.7 913.7 451.3 950.3 507.8 964.5C564.3 978.7 620.7 970.3 677 952.2C733.3 934 789.7 906 846 900C902.3 894 958.7 910 1015.2 907C1071.7 904 1128.3 882 1184.8 901.2C1241.3 920.3 1297.7 980.7 1354 1000.3C1410.3 1020 1466.7 999 1523 1001C1579.3 1003 1635.7 1028 1692.2 1031.3C1748.7 1034.7 1805.3 1016.3 1861.8 1000.3C1918.3 984.3 1974.7 970.7 2031 949.2C2087.3 927.7 2143.7 898.3 2171.8 883.7L2200 869L2200 1401L2171.8 1401C2143.7 1401 2087.3 1401 2031 1401C1974.7 1401 1918.3 1401 1861.8 1401C1805.3 1401 1748.7 1401 1692.2 1401C1635.7 1401 1579.3 1401 1523 1401C1466.7 1401 1410.3 1401 1354 1401C1297.7 1401 1241.3 1401 1184.8 1401C1128.3 1401 1071.7 1401 1015.2 1401C958.7 1401 902.3 1401 846 1401C789.7 1401 733.3 1401 677 1401C620.7 1401 564.3 1401 507.8 1401C451.3 1401 394.7 1401 338.2 1401C281.7 1401 225.3 1401 169 1401C112.7 1401 56.3 1401 28.2 1401L0 1401Z" fill="#bc4768"></path><path d="M0 1111L28.2 1104.5C56.3 1098 112.7 1085 169 1069C225.3 1053 281.7 1034 338.2 1012.7C394.7 991.3 451.3 967.7 507.8 977.7C564.3 987.7 620.7 1031.3 677 1047.5C733.3 1063.7 789.7 1052.3 846 1043.3C902.3 1034.3 958.7 1027.7 1015.2 1031.5C1071.7 1035.3 1128.3 1049.7 1184.8 1058.5C1241.3 1067.3 1297.7 1070.7 1354 1072.8C1410.3 1075 1466.7 1076 1523 1068.2C1579.3 1060.3 1635.7 1043.7 1692.2 1030.5C1748.7 1017.3 1805.3 1007.7 1861.8 1011C1918.3 1014.3 1974.7 1030.7 2031 1021C2087.3 1011.3 2143.7 975.7 2171.8 957.8L2200 940L2200 1401L2171.8 1401C2143.7 1401 2087.3 1401 2031 1401C1974.7 1401 1918.3 1401 1861.8 1401C1805.3 1401 1748.7 1401 1692.2 1401C1635.7 1401 1579.3 1401 1523 1401C1466.7 1401 1410.3 1401 1354 1401C1297.7 1401 1241.3 1401 1184.8 1401C1128.3 1401 1071.7 1401 1015.2 1401C958.7 1401 902.3 1401 846 1401C789.7 1401 733.3 1401 677 1401C620.7 1401 564.3 1401 507.8 1401C451.3 1401 394.7 1401 338.2 1401C281.7 1401 225.3 1401 169 1401C112.7 1401 56.3 1401 28.2 1401L0 1401Z" fill="#ae465c"></path><path d="M0 1110L28.2 1110.5C56.3 1111 112.7 1112 169 1099.2C225.3 1086.3 281.7 1059.7 338.2 1070C394.7 1080.3 451.3 1127.7 507.8 1133.3C564.3 1139 620.7 1103 677 1077.3C733.3 1051.7 789.7 1036.3 846 1037.7C902.3 1039 958.7 1057 1015.2 1078C1071.7 1099 1128.3 1123 1184.8 1128C1241.3 1133 1297.7 1119 1354 1102.2C1410.3 1085.3 1466.7 1065.7 1523 1053C1579.3 1040.3 1635.7 1034.7 1692.2 1029.8C1748.7 1025 1805.3 1021 1861.8 1030.7C1918.3 1040.3 1974.7 1063.7 2031 1077C2087.3 1090.3 2143.7 1093.7 2171.8 1095.3L2200 1097L2200 1401L2171.8 1401C2143.7 1401 2087.3 1401 2031 1401C1974.7 1401 1918.3 1401 1861.8 1401C1805.3 1401 1748.7 1401 1692.2 1401C1635.7 1401 1579.3 1401 1523 1401C1466.7 1401 1410.3 1401 1354 1401C1297.7 1401 1241.3 1401 1184.8 1401C1128.3 1401 1071.7 1401 1015.2 1401C958.7 1401 902.3 1401 846 1401C789.7 1401 733.3 1401 677 1401C620.7 1401 564.3 1401 507.8 1401C451.3 1401 394.7 1401 338.2 1401C281.7 1401 225.3 1401 169 1401C112.7 1401 56.3 1401 28.2 1401L0 1401Z" fill="#a04652"></path><path d="M0 1179L28.2 1186C56.3 1193 112.7 1207 169 1208.5C225.3 1210 281.7 1199 338.2 1194.5C394.7 1190 451.3 1192 507.8 1196.7C564.3 1201.3 620.7 1208.7 677 1192.3C733.3 1176 789.7 1136 846 1136.3C902.3 1136.7 958.7 1177.3 1015.2 1194C1071.7 1210.7 1128.3 1203.3 1184.8 1190.5C1241.3 1177.7 1297.7 1159.3 1354 1163.5C1410.3 1167.7 1466.7 1194.3 1523 1195.5C1579.3 1196.7 1635.7 1172.3 1692.2 1169.7C1748.7 1167 1805.3 1186 1861.8 1177.5C1918.3 1169 1974.7 1133 2031 1134.3C2087.3 1135.7 2143.7 1174.3 2171.8 1193.7L2200 1213L2200 1401L2171.8 1401C2143.7 1401 2087.3 1401 2031 1401C1974.7 1401 1918.3 1401 1861.8 1401C1805.3 1401 1748.7 1401 1692.2 1401C1635.7 1401 1579.3 1401 1523 1401C1466.7 1401 1410.3 1401 1354 1401C1297.7 1401 1241.3 1401 1184.8 1401C1128.3 1401 1071.7 1401 1015.2 1401C958.7 1401 902.3 1401 846 1401C789.7 1401 733.3 1401 677 1401C620.7 1401 564.3 1401 507.8 1401C451.3 1401 394.7 1401 338.2 1401C281.7 1401 225.3 1401 169 1401C112.7 1401 56.3 1401 28.2 1401L0 1401Z" fill="#92444a"></path><path d="M0 1216L28.2 1222C56.3 1228 112.7 1240 169 1242.2C225.3 1244.3 281.7 1236.7 338.2 1242.8C394.7 1249 451.3 1269 507.8 1268.2C564.3 1267.3 620.7 1245.7 677 1235.2C733.3 1224.7 789.7 1225.3 846 1234C902.3 1242.7 958.7 1259.3 1015.2 1268C1071.7 1276.7 1128.3 1277.3 1184.8 1271.5C1241.3 1265.7 1297.7 1253.3 1354 1251.5C1410.3 1249.7 1466.7 1258.3 1523 1249.8C1579.3 1241.3 1635.7 1215.7 1692.2 1202.7C1748.7 1189.7 1805.3 1189.3 1861.8 1205.5C1918.3 1221.7 1974.7 1254.3 2031 1271.7C2087.3 1289 2143.7 1291 2171.8 1292L2200 1293L2200 1401L2171.8 1401C2143.7 1401 2087.3 1401 2031 1401C1974.7 1401 1918.3 1401 1861.8 1401C1805.3 1401 1748.7 1401 1692.2 1401C1635.7 1401 1579.3 1401 1523 1401C1466.7 1401 1410.3 1401 1354 1401C1297.7 1401 1241.3 1401 1184.8 1401C1128.3 1401 1071.7 1401 1015.2 1401C958.7 1401 902.3 1401 846 1401C789.7 1401 733.3 1401 677 1401C620.7 1401 564.3 1401 507.8 1401C451.3 1401 394.7 1401 338.2 1401C281.7 1401 225.3 1401 169 1401C112.7 1401 56.3 1401 28.2 1401L0 1401Z" fill="#844343"></path><path d="M0 1300L28.2 1307.8C56.3 1315.7 112.7 1331.3 169 1327C225.3 1322.7 281.7 1298.3 338.2 1295C394.7 1291.7 451.3 1309.3 507.8 1308C564.3 1306.7 620.7 1286.3 677 1287.3C733.3 1288.3 789.7 1310.7 846 1320.8C902.3 1331 958.7 1329 1015.2 1319.8C1071.7 1310.7 1128.3 1294.3 1184.8 1286.5C1241.3 1278.7 1297.7 1279.3 1354 1283.3C1410.3 1287.3 1466.7 1294.7 1523 1305.7C1579.3 1316.7 1635.7 1331.3 1692.2 1337.7C1748.7 1344 1805.3 1342 1861.8 1332.2C1918.3 1322.3 1974.7 1304.7 2031 1291.8C2087.3 1279 2143.7 1271 2171.8 1267L2200 1263L2200 1401L2171.8 1401C2143.7 1401 2087.3 1401 2031 1401C1974.7 1401 1918.3 1401 1861.8 1401C1805.3 1401 1748.7 1401 1692.2 1401C1635.7 1401 1579.3 1401 1523 1401C1466.7 1401 1410.3 1401 1354 1401C1297.7 1401 1241.3 1401 1184.8 1401C1128.3 1401 1071.7 1401 1015.2 1401C958.7 1401 902.3 1401 846 1401C789.7 1401 733.3 1401 677 1401C620.7 1401 564.3 1401 507.8 1401C451.3 1401 394.7 1401 338.2 1401C281.7 1401 225.3 1401 169 1401C112.7 1401 56.3 1401 28.2 1401L0 1401Z" fill="#76413d"></path></svg>