<svg id="visual" viewBox="0 0 1920 1080" width="1920" height="1080" xmlns="http://www.w3.org/2000/svg" xmlns:xlink="http://www.w3.org/1999/xlink" version="1.1"><rect x="0" y="0" width="1920" height="1080" fill="#001220"></rect><defs><linearGradient id="grad1_0" x1="43.8%" y1="100%" x2="100%" y2="0%"><stop offset="14.444444444444446%" stop-color="#001220" stop-opacity="1"></stop><stop offset="85.55555555555554%" stop-color="#001220" stop-opacity="1"></stop></linearGradient></defs><defs><linearGradient id="grad2_0" x1="0%" y1="100%" x2="56.3%" y2="0%"><stop offset="14.444444444444446%" stop-color="#001220" stop-opacity="1"></stop><stop offset="85.55555555555554%" stop-color="#001220" stop-opacity="1"></stop></linearGradient></defs><g transform="translate(1920, 1080)"><path d="M-756 0C-681.9 -46 -607.8 -92 -605.6 -162.3C-603.5 -232.6 -673.2 -327.2 -654.7 -378C-636.2 -428.8 -529.4 -435.7 -466.7 -466.7C-404 -497.7 -385.3 -552.7 -348 -602.8C-310.7 -652.8 -254.7 -697.8 -193.6 -722.5C-132.5 -747.2 -66.2 -751.6 0 -756L0 0Z" fill="#FBAE3C"></path></g><g transform="translate(0, 0)"><path d="M756 0C759.4 70 762.9 140 730.2 195.7C697.6 251.3 628.9 292.6 577.6 333.5C526.4 374.4 492.6 415 456.8 456.8C421 498.6 383.2 541.6 340.5 589.8C297.8 637.9 250.4 691.1 192.8 719.6C135.3 748.2 67.6 752.1 0 756L0 0Z" fill="#FBAE3C"></path></g></svg>